<?xml version="1.0" encoding="UTF-8"?>
<svg id="Layer_2" data-name="Layer 2" xmlns="http://www.w3.org/2000/svg" viewBox="0 0 322.75 322.75">
  <defs>
    <style>
      .cls-1 {
        fill: #FF6200;
      }
    </style>
  </defs>
  <g id="Layer_1-2" data-name="Layer 1">
    <g>
      <path class="cls-1" d="M166.45,37.98l132.88,70.28,23.42,62.87-99.18-33.25c-14.38-4.82-25.82-15.89-31.12-30.11l-26-69.79Z"/>
      <path class="cls-1" d="M284.76,166.45l-70.28,132.88-62.87,23.42,33.25-99.18c4.82-14.38,15.89-25.82,30.11-31.12l69.79-26Z"/>
      <path class="cls-1" d="M156.3,284.76L23.42,214.48,0,151.61l99.18,33.25c14.38,4.82,25.82,15.89,31.12,30.11l26,69.79Z"/>
      <path class="cls-1" d="M37.99,156.3L108.27,23.42,171.14,0l-33.25,99.18c-4.82,14.38-15.89,25.82-30.11,31.12l-69.79,26Z"/>
    </g>
  </g>
</svg>
